<?xml version="1.0" standalone="no"?>
<!DOCTYPE svg PUBLIC "-//W3C//DTD SVG 1.1//EN" "http://www.w3.org/Graphics/SVG/1.1/DTD/svg11.dtd" >
<svg xmlns="http://www.w3.org/2000/svg">
<metadata>Generated by IcoMoon</metadata>
<defs>
<font id="icomoon" horiz-adv-x="1024">
<font-face units-per-em="1024" ascent="960" descent="-64" />
<missing-glyph horiz-adv-x="1024" />
<glyph unicode="&#x20;" horiz-adv-x="512" d="" />
<glyph unicode="&#xe900;" glyph-name="amend" horiz-adv-x="768" d="M738.359 762.585c17.963-17.965 28.143-42.517 28.143-67.867v-662.906c0-52.898-42.914-95.812-95.812-95.812h-574.877c-52.896 0-95.813 42.914-95.813 95.812v830.378c0 52.897 42.916 95.813 95.813 96.013h407.407c25.348 0 49.702-10.18 67.665-28.145l167.475-167.473zM693.248 717.274l-167.475 167.473c-4.19 4.192-9.182 6.986-14.771 8.384v-190.628h190.626c-1.395 5.589-4.19 10.58-8.38 14.771zM95.813-0.124h574.877c17.566 0 31.936 14.37 31.936 31.936v606.815h-207.595c-26.547 0-47.906 21.358-47.906 47.906v207.595h-351.313c-17.565 0-31.937-14.372-31.937-31.938v-830.378c0-17.566 14.372-31.936 31.937-31.936zM437.547 464.567l59.085-59.085c3.593-3.593 3.593-9.182 0-12.774l-224.363-224.363-60.083-8.585c-11.777-1.596-21.957 8.384-20.36 20.361l8.583 60.083 224.361 224.363c3.595 3.593 9.184 3.593 12.777 0zM533.359 429.436l32.734 32.738c11.78 11.776 11.78 30.737 0 42.317l-29.542 29.541c-11.575 11.777-30.541 11.777-42.317 0l-32.734-32.737c-3.593-3.593-3.593-9.182 0-12.774l59.085-59.085c3.593-3.593 9.182-3.593 12.774 0z" />
<glyph unicode="&#xe901;" glyph-name="arrow-double-left" d="M381.242 467.428l482.515 482.286c10.743 10.743 28.114 10.743 38.628 0.229l16.228-16.229c10.743-10.743 10.743-28.114 0-38.857l-446.628-446.857 446.856-446.629c10.744-10.743 10.744-28.114 0-38.857l-16.228-16.229c-10.743-10.746-28.114-10.746-38.857 0l-482.515 482.287c-10.743 10.743-10.743 28.114 0 38.857zM626.271 933.485l-16.228 16.229c-10.743 10.743-28.114 10.743-39.086-0.229l-482.514-482.285c-10.743-10.743-10.743-28.115 0-38.858l482.514-482.286c10.743-10.743 28.115-10.743 38.858 0l16.228 16.228c10.743 10.744 10.743 28.115 0 38.858l-446.629 446.857 446.857 446.628c10.743 10.743 10.743 28.114 0 38.857z" />
<glyph unicode="&#xe902;" glyph-name="arrow-double-right" d="M598.857 467.428l-482.514 482.286c-10.743 10.743-28.114 10.743-38.629 0.229l-16.229-16.229c-10.743-10.743-10.743-28.114 0-38.857l446.628-446.857-446.857-446.629c-10.743-10.743-10.743-28.114 0-38.857l16.229-16.229c10.743-10.746 28.114-10.746 38.857 0l482.514 482.287c10.743 10.743 10.743 28.114 0 38.857zM353.829 933.485l16.228 16.229c10.743 10.743 28.114 10.743 39.086-0.229l482.514-482.285c10.743-10.743 10.743-28.115 0-38.858l-482.514-482.286c-10.744-10.743-28.115-10.743-38.858 0l-16.228 16.228c-10.743 10.744-10.743 28.115 0 38.858l446.629 446.857-446.857 446.628c-10.743 10.743-10.743 28.114 0 38.857z" />
<glyph unicode="&#xe903;" glyph-name="arrow-left" d="M763.605 949.79l16.162-16.16c10.711-10.711 10.711-28.078 0-38.791l-446.841-446.843 446.841-446.844c10.711-10.71 10.711-28.077 0-38.79l-16.162-16.161c-10.711-10.713-28.078-10.713-38.789 0l-482.402 482.4c-10.711 10.711-10.711 28.078 0 38.791l482.402 482.398c10.711 10.713 28.078 10.713 38.789 0z" />
<glyph unicode="&#xe904;" glyph-name="arrow-long-down" d="M8.035 461.482l45.255 45.256c10.711 10.71 28.078 10.71 38.791 0l354.581-354.584v780.416c0 15.147 12.281 27.429 27.428 27.429h64c15.148 0 27.429-12.281 27.429-27.429v-780.416l354.583 354.584c10.711 10.71 28.078 10.71 38.791 0l45.255-45.256c10.711-10.711 10.711-28.077 0-38.79l-478.663-478.659c-10.711-10.706-28.078-10.706-38.791 0l-478.658 478.661c-10.713 10.711-10.713 28.077 0 38.788z" />
<glyph unicode="&#xe905;" glyph-name="arrow-right" horiz-adv-x="614" d="M26.345 949.79l-16.162-16.16c-10.711-10.711-10.711-28.078 0-38.791l446.841-446.843-446.841-446.844c-10.711-10.71-10.711-28.077 0-38.79l16.162-16.161c10.711-10.713 28.078-10.713 38.789 0l482.402 482.4c10.711 10.711 10.711 28.078 0 38.791l-482.402 482.398c-10.711 10.713-28.078 10.713-38.789 0z" />
<glyph unicode="&#xe906;" glyph-name="check-circle" d="M512 960c-282.771 0-512-229.229-512-512s229.229-512 512-512c282.771 0 512 229.229 512 512s-229.229 512-512 512zM512 2.067c-244.984 0-445.935 198.304-445.935 445.933 0 244.982 198.307 445.935 445.935 445.935 244.986 0 445.933-198.307 445.933-445.935 0-244.979-198.304-445.933-445.933-445.933zM431.793 200.109l372.604 369.617c9.715 9.635 9.779 25.321 0.141 35.035l-17.446 17.59c-9.638 9.713-25.325 9.775-35.034 0.14l-337.428-334.721-142.402 143.553c-9.635 9.713-25.322 9.775-35.035 0.14l-17.59-17.447c-9.713-9.635-9.775-25.322-0.14-35.035l177.297-178.732c9.635-9.709 25.321-9.773 35.034-0.141z" />
<glyph unicode="&#xe907;" glyph-name="clock" d="M512 960c-282.838 0-512-229.162-512-512 0-282.842 229.162-512 512-512 282.842 0 512 229.158 512 512 0 282.838-229.158 512-512 512zM957.933 448c0-245.056-198.4-445.933-445.933-445.933-245.058 0-445.935 198.4-445.935 445.933 0 245.058 198.4 445.935 445.935 445.935 245.056 0 445.933-198.4 445.933-445.935zM482.89 387.51l167.638-121.807c11.149-8.051 26.63-5.574 34.688 5.37l16.928 23.328c8.051 11.149 5.779 26.632-5.37 34.684l-145.549 105.909v302.039c0 13.626-11.148 24.774-24.774 24.774h-28.904c-13.626 0-24.774-11.149-24.774-24.774v-329.497c0-7.845 3.716-15.277 10.116-20.026z" />
<glyph unicode="&#xe908;" glyph-name="examine" d="M860.198 767c-87.2-2-157.402-75-156.198-162.2 0.998-76.4 55.597-139.8 128-154.4v-211.2c0-131.802-114.797-239.002-256-239.002-141.2 0-256 107.2-256 239.002v17.798c143.8 16 256 138.202 256 286.202v365.2c0 11-7.4 20.6-18.2 23.2l-110.799 27.6c-12.8 3.2-25.8-4.6-29.201-17.4l-3.8-15.6c-3.2-12.8 4.6-25.8 17.4-29.2l80.6-20v-331.6c0-123.6-99-225.797-222.6-226.399-124.2-0.8-225.4 99.999-225.4 223.999v334l80.4 20.2c12.8 3.2 20.6 16.2 17.4 29.2l-3.8 15.4c-3.2 12.8-16.2 20.6-29.2 17.4l-110.6-27.6c-10.8-2.6-18.2-12.2-18.2-23.2v-365.2c0-148 112.2-270.202 256-286.202v-17.798c0-167.2 143.6-303.2 320-303.2 176.403 0 320 136 320 303.002v211.199c72.998 14.8 128 79.4 128 156.8 0 89.8-73.798 162.2-163.802 160zM864 511c-52.998 0-96 43-96 96s43.002 96 96 96c52.998 0 96-43 96-96s-43.002-96-96-96zM864 560c25.997 0 47.002 21 47.002 47s-21.005 47-47.002 47c-25.997 0-47.002-21-47.002-47s21.005-47 47.002-47z" />
<glyph unicode="&#xe909;" glyph-name="license" horiz-adv-x="768" d="M570.884 930.058c-17.963 17.965-42.317 28.145-67.665 28.145h-407.407c-52.896-0.2-95.813-43.116-95.813-96.013v-830.378c0-52.898 42.916-95.812 95.813-95.812h574.877c52.898 0 95.812 42.914 95.812 95.812v662.906c0 25.35-10.18 49.903-28.143 67.867l-167.475 167.473zM701.628 702.502h-190.626v190.628c5.589-1.397 10.581-4.192 14.771-8.384l167.475-167.473c4.19-4.192 6.985-9.182 8.38-14.771zM670.69-0.124h-574.877c-17.565 0-31.937 14.37-31.937 31.936v830.378c0 17.566 14.372 31.938 31.937 31.938h351.313v-207.595c0-26.548 21.359-47.906 47.906-47.906h207.595v-606.815c0-17.566-14.37-31.936-31.936-31.936zM574.878 343.202v15.97c0 13.175-10.778 23.953-23.953 23.953h-135.736v135.735c0 13.175-10.779 23.953-23.953 23.953h-15.969c-13.174 0-23.953-10.778-23.953-23.953v-135.735h-135.735c-13.174 0-23.953-10.778-23.953-23.953v-15.97c0-13.171 10.779-23.953 23.953-23.953h135.735v-135.731c0-13.175 10.779-23.953 23.953-23.953h15.969c13.174 0 23.953 10.778 23.953 23.953v135.731h135.736c13.175 0 23.953 10.782 23.953 23.953z" />
<glyph unicode="&#xe90a;" glyph-name="new-app" d="M995.802 764.040c17.997-18 28.198-42.6 28.198-67.98v-664.081c0-52.979-42.999-95.979-95.979-95.979h-544.001c-4.88 0-9.82 1.139-14.32 3.379l-113.68 56.841-113.68-56.841c-9.94-4.919-21.8-4.42-31.12 1.399-9.44 5.841-15.18 16.119-15.18 27.221v208.141c-1.501 0.397-2.803 0.755-4.16 1.126l-0.010 0.004c-1.424 0.388-2.909 0.798-4.751 1.289-13.4 3.661-23.96 14.438-27.56 28.198l-0.905 3.443c-11.956 45.547-12 45.709-47.135 81.139-9.92 10.099-13.8 24.998-10.16 38.899l0.111 0.414c12.929 48.329 12.972 48.486-0.111 97.105-3.64 13.901 0.26 28.783 10.16 38.861l0.733 0.742c17.429 17.651 26.045 26.377 31.874 36.681 5.698 10.074 8.733 21.653 14.734 44.55l0.699 2.668c3.62 13.72 14.16 24.52 27.56 28.14l2.661 0.727c22.803 6.226 34.184 9.334 44.003 15.099 9.783 5.743 18.018 14.124 34.457 30.855l2.279 2.32c6.46 6.58 16.2 11.58 27.32 11.58 3.2 0 6.52-0.4 9.92-1.32l1.674-0.46c23.259-6.394 34.922-9.6 46.586-9.6v235.22c0 52.98 42.98 95.98 95.98 96.18h408.26c25.399 0 49.779-10.2 67.78-28.2l167.761-167.76zM768.060 894.82v-190.96h190.959c-1.399 5.6-4.198 10.6-8.397 14.8l-167.761 167.76c-4.203 4.2-9.199 7-14.801 8.4zM66.58 431.42c11.38-44.318 11.38-60.181-0.020-104.781 31.84-32.858 39.34-46.221 51.28-90.001 29.34-7.979 48.1-14.899 74.46-38.656 19.9 9.079 41.56 13.798 63.7 13.798s43.82-4.719 63.7-13.781c26.5 24 45.24 30.882 74.5 38.72 12.12 44.002 19.98 57.583 51.218 89.92-11.52 44.8-11.537 59.9 0 104.802-31.878 32.879-39.339 46.238-51.299 90.138-42.74 12.201-56.6 20.341-87.72 51.361-19.88-5.34-33.82-8.32-50.38-8.32-16.78 0-30.82 3.060-50.42 8.3-31.64-31.54-44.62-39.12-87.76-51.38-12.14-44.16-19.96-57.719-51.26-90.121zM270.34 60.621l81.68-40.841v120.439c-0.145-0.158-0.26-0.256-0.378-0.363-0.093-0.081-0.188-0.162-0.302-0.277-7.52-7.599-17.34-11.58-27.26-11.58-6.98 0-14.020 1.98-20.34 6.020-14.5 9.139-31.12 13.722-47.74 13.722s-33.24-4.582-47.74-13.76c-6.28-3.981-13.32-5.943-20.32-5.943-9.92 0-19.78 3.942-27.28 11.58-0.12 0.124-0.215 0.209-0.31 0.29-0.095 0.085-0.19 0.171-0.31 0.29v-120.418l81.68 40.841c9 4.497 19.62 4.497 28.62 0zM416.020-0.021h512.001c17.6 0 32 14.4 32 32h0.017v608.021h-207.957c-26.603 0-48 21.26-48 47.86v208.14h-352.061c-17.6 0-32-14.58-32-32.18v-225.020c7.92-1.28 15.6-4.38 21.48-10.32 17.951-18.414 26.693-27.386 37.13-33.432 10.297-5.965 22.244-9.082 46.31-15.607 13.362-3.64 23.901-14.44 27.502-28.18 0.307-1.176 0.61-2.324 0.905-3.444 11.977-45.544 12.019-45.706 47.155-81.137 9.899-10.099 13.798-24.998 10.138-38.899-13.082-48.777-13.060-48.862-0.051-97.327l0.051-0.192c3.661-13.901-0.239-28.8-10.138-38.882-17.933-18.15-26.714-26.97-32.627-37.414-5.918-10.453-8.96-22.532-15.433-47.223-3.601-13.722-14.14-24.521-27.541-28.16-1.252-0.337-2.338-0.631-3.353-0.905-1.886-0.512-3.525-0.956-5.527-1.476v-176.222z" />
<glyph unicode="&#xe90b;" glyph-name="return" d="M24.774 960h20.645c13.682 0 24.774-11.093 24.774-24.774v-228.387c89.179 151.903 254.429 253.749 443.444 253.159 281.576-0.882 510.804-231.242 510.363-512.815-0.442-282.395-229.504-511.182-512-511.182-131.976 0-252.288 49.933-343.077 131.936-10.556 9.536-11.053 25.933-0.995 35.994l14.594 14.592c9.297 9.299 24.256 9.734 34.028 0.941 78.227-70.406 181.768-113.267 295.451-113.267 243.085 0 441.805 196.813 441.805 441.804 0 243.085-196.813 441.807-441.805 441.807-171.070 0-319.457-97.191-392.854-239.484h235.951c13.681 0 24.774-11.092 24.774-24.774v-20.645c0-13.682-11.092-24.774-24.774-24.774h-330.323c-13.682 0-24.774 11.092-24.774 24.774v330.322c0 13.682 11.093 24.774 24.774 24.774z" />
<glyph unicode="&#xe90c;" glyph-name="search" d="M757.52 256.175l257.494-257.498c9.387-9.378 9.387-24.55 0-33.937l-19.755-19.755c-9.387-9.387-24.559-9.387-33.937 0l-257.498 257.494c-4.391 4.591-6.986 10.579-6.986 16.967v20.36c-74.055-68.267-172.862-110.184-281.649-110.184-229.352 0-415.189 185.836-415.189 415.188s185.837 415.189 415.189 415.189c229.352 0 415.188-185.837 415.188-415.189 0-108.787-41.917-207.595-110.384-281.649h20.559c6.388 0 12.376-2.395 16.967-6.986zM63.875 544.811c0-194.22 157.093-351.314 351.314-351.314s351.314 157.094 351.314 351.314c0 194.221-157.094 351.314-351.314 351.314s-351.314-157.093-351.314-351.314z" />
<glyph unicode="&#xe90d;" glyph-name="apps" horiz-adv-x="768" d="M738.368 762.56l-167.488 167.488c-17.92 17.92-42.304 28.16-67.648 28.16h-407.424c-52.908-0.182-95.736-43.077-95.808-95.993v-830.407c0-52.864 42.88-95.808 95.808-95.808h574.912c52.864 0 95.808 42.88 95.808 95.808v662.912c0 25.344-10.24 49.92-28.16 67.84zM693.248 717.248c3.978-3.933 6.907-8.917 8.337-14.503l0.047-0.217h-190.656v190.592c5.822-1.447 10.83-4.357 14.783-8.319l167.489-167.553zM670.72-0.128h-574.912c-17.646 0.036-31.936 14.349-31.936 32 0 0 0 0 0 0v0 830.272c0.036 17.646 14.349 31.936 32 31.936 0 0 0 0 0 0h351.232v-207.616c0-26.56 21.376-47.872 47.936-47.872h207.616v-606.848c-0.036-17.646-14.349-31.936-32-31.936 0 0 0 0 0 0v0zM574.848 486.912v-16c-0.036-13.205-10.731-23.9-23.933-23.936h-335.363c-13.227 0.036-23.936 10.768-23.936 24 0 0 0 0 0 0v0 16c0 13.12 10.816 23.872 23.936 23.872h335.36c13.184 0 23.936-10.752 23.936-23.936zM574.848 359.168v-16c-0.036-13.205-10.731-23.9-23.933-23.936h-335.363c-13.227 0.036-23.936 10.768-23.936 24 0 0 0 0 0 0v0 16c0 13.12 10.816 23.872 23.936 23.872h335.36c13.184 0 23.936-10.752 23.936-23.936zM574.848 231.424v-16c-0.036-13.205-10.731-23.9-23.933-23.936h-335.363c-13.205 0.036-23.9 10.731-23.936 23.933v16.003c0 13.184 10.816 23.936 23.936 23.936h335.36c13.184 0 23.936-10.752 23.936-23.936z" />
<glyph unicode="&#xe90e;" glyph-name="more-dots" horiz-adv-x="293" d="M0 837.12c0-67.84 55.040-122.88 122.88-122.88s122.88 55.040 122.88 122.88c0 67.84-55.040 122.88-122.88 122.88s-122.88-55.040-122.88-122.88zM122.88 570.88c67.84 0 122.88-55.040 122.88-122.88s-55.040-122.88-122.88-122.88c-67.84 0-122.88 55.040-122.88 122.88s55.040 122.88 122.88 122.88zM122.88-64c-67.84 0-122.88 55.040-122.88 122.88s55.040 122.88 122.88 122.88c67.84 0 122.88-55.040 122.88-122.88s-55.040-122.88-122.88-122.88z" />
<glyph unicode="&#xe90f;" glyph-name="bell" horiz-adv-x="914" d="M450.011 0c-35.328 0-64 28.745-64 64.073h-64c0.062-70.682 57.324-127.969 127.99-128.073h0.010c70.583 0 128 57.417 128 128.073h-64c0-35.328-28.709-64.073-64-64.073zM868.754 290.377c-55.918 53.248-98.67 108.983-98.67 297.838 0 159.159-126.793 288.987-288.073 304.677v35.109c0 17.673-14.327 32-32 32s-32-14.327-32-32v0-35.109c-161.28-15.726-288.073-145.518-288.073-304.677 0-188.855-42.789-244.59-98.743-297.838-18.011-17.011-29.223-41.056-29.223-67.719 0-12.523 2.473-24.468 6.958-35.374l-0.226 0.62c14.486-35.412 48.676-59.907 88.586-59.907 0.254 0 0.507 0.001 0.76 0.003h703.961c0.188-0.001 0.411-0.002 0.633-0.002 39.924 0 74.123 24.511 88.37 59.306l0.231 0.637c4.252 10.279 6.721 22.215 6.721 34.727 0 26.658-11.208 50.699-29.168 67.667l-0.045 0.042zM802.011 192h-704c-28.489 0-42.679 32.914-22.674 52.005 69.742 66.414 118.601 140.69 118.601 344.174 0 134.766 114.505 243.822 256.073 243.822 141.531 0 256.073-109.056 256.073-243.785 0-202.715 48.421-277.431 118.565-344.174 20.114-19.163 5.705-52.041-22.674-52.041z" />
<glyph unicode="&#xe910;" glyph-name="cancel" d="M149.961 900.548l814.587-814.587c24.994-24.994 24.994-65.516 0-90.51s-65.516-24.994-90.51 0l-814.587 814.587c-24.994 24.994-24.994 65.516 0 90.51s65.516 24.994 90.51 0zM59.452 85.961l814.587 814.587c24.994 24.994 65.516 24.994 90.51 0s24.994-65.516 0-90.51l-814.587-814.587c-24.994-24.994-65.516-24.994-90.51 0s-24.994 65.516 0 90.51z" />
<glyph unicode="&#xe911;" glyph-name="edit" d="M986.478 847.506l-74.971 74.971c-23.1 23.18-55.055 37.522-90.36 37.522-0.067 0-0.134 0-0.202 0h0.011c-32.768 0-65.463-12.434-90.478-37.449l-704.878-704.805-25.307-228.352c-0.19-1.602-0.298-3.457-0.298-5.337 0-26.5 21.482-47.982 47.982-47.982 1.857 0 3.69 0.106 5.492 0.311l-0.22-0.020 228.279 25.234 705.024 704.951c23.166 23.164 37.495 55.166 37.495 90.514s-14.329 67.35-37.495 90.514v0zM252.123 22.674l-186.002-20.626 20.699 186.295 527.799 527.799 165.522-165.522-527.945-527.945zM941.275 711.68l-115.858-115.785-165.522 165.522 115.858 115.858c11.524 11.567 27.468 18.725 45.083 18.725 0.042 0 0.084 0 0.126 0h-0.007c0.079 0 0.172 0.001 0.265 0.001 17.615 0 33.559-7.158 45.081-18.723l74.973-75.047c11.537-11.596 18.669-27.585 18.669-45.239s-7.132-33.643-18.672-45.242l0.003 0.003z" />
<glyph unicode="&#xe912;" glyph-name="exclamation-mark" horiz-adv-x="341" d="M320 96c-0.097-88.326-71.674-159.903-159.991-160h-0.009c-88.326 0.097-159.903 71.674-160 159.991v0.009c0.097 88.326 71.674 159.903 159.991 160h0.009c88.326-0.097 159.903-71.674 160-159.991v-0.009zM18.517 909.611l27.221-544c1.28-25.557 22.357-45.611 47.915-45.611h132.693c25.6 0 46.635 20.053 47.915 45.611l27.221 544c0.038 0.714 0.060 1.549 0.060 2.389 0 26.51-21.49 48-48 48-0.006 0-0.012 0-0.018 0h-187.050c-27.477 0-49.323-22.997-47.957-50.389z" />
<glyph unicode="&#xe913;" glyph-name="exit" horiz-adv-x="1195" d="M111.957 960h307.968c15.36 0 27.989-13.824 27.989-30.72v-20.48c0-16.981-12.629-30.72-27.989-30.72h-307.968c-20.48 0-37.291-18.517-37.291-40.96v-737.877c0-22.528 16.811-40.96 37.291-40.96h307.968c15.36 0 27.989-13.824 27.989-30.72v-20.48c0-16.896-12.629-30.72-27.989-30.72h-307.968c-61.781 0-111.957 55.040-111.957 122.88v737.877c0 67.84 50.176 122.88 111.957 122.88zM762.88 910.080l-16.64-18.347c-5.098-5.772-8.211-13.403-8.211-21.76s3.113-15.988 8.242-21.795l-0.031 0.035 307.968-336.555h-652.971c-15.36 0-27.989-13.909-27.989-30.72v-25.6c0-16.981 12.629-30.805 27.989-30.805h652.971l-307.712-336.64c-5.098-5.772-8.211-13.403-8.211-21.76s3.113-15.988 8.242-21.795l-0.031 0.035 16.555-18.176c4.845-5.555 11.935-9.045 19.84-9.045s14.995 3.49 19.813 9.013l0.027 0.031 383.744 420.096c5.098 5.772 8.211 13.403 8.211 21.76s-3.113 15.988-8.242 21.795l0.031-0.035-384 420.267c-4.845 5.555-11.935 9.045-19.84 9.045s-14.995-3.49-19.813-9.013l-0.027-0.031z" />
<glyph unicode="&#xe914;" glyph-name="home" horiz-adv-x="1152" d="M1144.704 519.040l-524.736 423.040c-12.201 9.975-27.955 16.019-45.12 16.019s-32.919-6.044-45.248-16.121l0.128 0.101-524.608-423.040c-3.061-2.484-5-6.245-5-10.46 0-3.228 1.138-6.191 3.035-8.508l-0.019 0.024 28.352-34.944c2.519-3.072 6.315-5.016 10.564-5.016 3.259 0 6.251 1.144 8.597 3.052l-0.025-0.020 77.184 62.272v-557.504c0-17.664 14.336-31.936 32-31.936h830.272c17.638 0 31.936 14.298 31.936 31.936v0 557.248l77.44-62.464c5.824-4.672 14.4-3.84 19.2 2.048l28.288 34.88c1.754 2.344 2.808 5.299 2.808 8.501 0 4.356-1.952 8.256-5.028 10.874l-0.020 0.017zM479.104-0.128v319.36h191.616v-319.36h-191.68zM958.144-0.128h-223.552v351.36c-0.036 17.61-14.321 31.872-31.936 31.872-0.023 0-0.045 0-0.068 0h-255.421c-17.638 0-31.936-14.298-31.936-31.936v0-351.296h-223.616v577.024l374.784 302.208c2.264 1.862 5.192 2.99 8.384 2.99s6.12-1.129 8.407-3.009l-0.023 0.018 375.040-302.336v-576.896z" />
<glyph unicode="&#xe915;" glyph-name="person" horiz-adv-x="951" d="M448 448c141.385 0 256 114.615 256 256s-114.615 256-256 256v0c-141.385 0-256-114.615-256-256s114.615-256 256-256v0zM627.2 384h-33.426c-42.765-20.174-92.894-31.95-145.774-31.95s-103.008 11.776-147.906 32.849l2.133-0.899h-33.426c-148.437-0.042-268.758-120.363-268.8-268.796v-83.167c0-53.029 43.008-96.037 96.037-96.037h703.927c53.029 0 96.037 43.008 96.037 96.037v83.163c-0.042 148.437-120.363 268.758-268.796 268.8h-0.004z" />
<glyph unicode="&#xe916;" glyph-name="resources" horiz-adv-x="1152" d="M1150.72 47.168l-352.768 896.768c-3.393 9.425-12.249 16.046-22.654 16.064h-0.002c-6.016 0-9.92-2.048-22.976-6.592-12.928-4.544-19.648-16.512-12.544-36.8-32.896-19.392-118.272-48.192-151.040-52.8-2.56 7.552-3.84 13.184-12.8 18.432v13.76c0 35.346-28.654 64-64 64v0h-191.936c-11.919-0.31-22.935-3.918-32.244-9.94l0.244 0.148c-9.063 5.88-20.081 9.489-31.921 9.79l-0.079 0.002h-192c-35.346 0-64-28.654-64-64v0-896c0-35.346 28.654-64 64-64v0h192c11.904 0 22.4 4.16 32 9.792 9.061-5.886 20.080-9.497 31.923-9.79l0.077-0.002h192c35.346 0 64 28.654 64 64v0 722.24l302.848-770.176c3.456-9.856 12.8-16.064 22.72-16.064 6.016 0 9.92 2.048 22.976 6.592 12.864 4.48 19.648 16.512 12.544 36.8 32.896 19.392 118.272 48.192 151.040 52.8 7.232-20.8 20.224-25.28 32.704-20.864l15.104 5.248c9.432 3.4 16.054 12.273 16.054 22.692 0 2.83-0.489 5.546-1.386 8.069l0.052-0.168zM256 0h-192v128h192v-128zM256 192h-192v512h192v-512zM256 768h-192v128h192v-128zM512 0h-192v128h192v-128zM512 192h-192v512h192v-512zM512 768h-192v128h192v-128zM918.272 32.896l-310.72 777.344c50.496 9.472 128 40.64 151.040 52.864l310.72-777.344c-50.496-9.472-128-40.64-151.040-52.864z" />
<glyph unicode="&#xe917;" glyph-name="services" d="M1003.264 182.528l-248.32 248.512c-28.833 28.865-68.683 46.72-112.703 46.72-0.113 0-0.226 0-0.339 0h0.018c-30.72 0-61.44-8.832-88-26.56l-170.688 170.688v146.496l-255.488 191.616-127.744-127.744 191.616-255.488h146.56l170.624-170.688c-16.584-24.77-26.467-55.244-26.467-88.026 0-44.111 17.893-84.042 46.817-112.933l248.513-248.577c11.547-11.548 27.499-18.69 45.12-18.69s33.573 7.142 45.12 18.69l135.552 135.552c11.471 11.582 18.558 27.523 18.558 45.119 0 17.692-7.165 33.711-18.751 45.313l0.001-0.001zM319.36 644.416v-3.84h-95.808l-139.072 185.664 49.28 49.28 185.6-139.008v-92.032zM822.592 1.856l-248.32 248.512c-17.392 17.221-28.16 41.102-28.16 67.499 0 0.075 0 0.15 0 0.225v-0.012c0 25.536 9.984 49.664 28.16 67.648 18.176 18.176 42.112 28.16 67.648 28.16 25.6 0 49.728-9.984 67.712-28.16l248.512-248.32-135.552-135.552zM127.744 97.664c0.036-17.646 14.349-31.936 32-31.936 0 0 0 0 0 0v0c17.618 0.073 31.872 14.372 31.872 32 0 0 0 0 0 0v0c-0.073 17.596-14.335 31.836-31.933 31.872h-0.003c-17.623-0.036-31.9-14.313-31.936-31.933v-0.003zM552.512 826.432c42.678 43.093 101.86 69.775 167.274 69.775 14.62 0 28.929-1.333 42.811-3.884l-1.445 0.22-138.432-138.624 27.52-165.632 165.888-27.52 138.368 138.24c2.331-12.433 3.664-26.736 3.664-41.351 0-91.399-52.134-170.621-128.287-209.552l-1.329-0.617 47.104-47.040c88.277 53.006 146.435 148.233 146.435 257.043 0 26.256-3.386 51.721-9.746 75.982l0.463-2.080c-4.829 19.032-19.29 33.812-37.764 39.013l-0.38 0.091c-4.397 1.27-9.447 2-14.668 2-15.082 0-28.74-6.094-38.646-15.954l-127.55-127.55-88.256 14.72-14.72 88.32 127.552 127.488c9.821 9.869 15.892 23.478 15.892 38.504 0 5.132-0.708 10.099-2.032 14.808l0.092-0.384c-5.387 18.93-20.239 33.442-38.982 38.254l-0.378 0.082c-22.040 5.811-47.343 9.147-73.425 9.147-83.032 0-158.166-33.815-212.382-88.426l-0.017-0.017c-25.728-25.728-45.696-55.68-60.096-87.808v-135.36l44.16-44.096c-19.2 80.64 3.2 164.096 61.248 222.144zM213.568 27.648c-33.152-33.152-91.008-33.152-124.16 0-15.823 15.917-25.603 37.856-25.603 62.080s9.78 46.163 25.608 62.084l291.644 291.58-45.12 45.12-291.648-291.648c-27.362-27.492-44.278-65.403-44.278-107.264s16.915-79.772 44.284-107.27l-0.006 0.006c27.286-27.399 65.041-44.353 106.756-44.353 0.156 0 0.312 0 0.468 0.001h-0.024c40.512 0 78.72 15.808 107.2 44.544l203.2 203.008c-12.468 17.113-22.926 36.804-30.411 57.902l-0.501 1.618-217.408-217.408z" />
<glyph unicode="&#xe918;" glyph-name="support" horiz-adv-x="896" d="M640 256h-9.408c-24.32 0-48-5.76-71.040-13.632-33.287-11.67-71.664-18.412-111.616-18.412s-78.329 6.742-114.056 19.149l2.44-0.737c-22.976 7.872-46.592 13.632-70.848 13.632h-9.472c-141.385 0-256-114.615-256-256v0c0-35.346 28.654-64 64-64v0h768c35.346 0 64 28.654 64 64v0c0 141.385-114.615 256-256 256v0zM64 0c0.109 105.995 86.005 191.891 191.99 192h9.482c13.824 0 29.824-3.2 50.304-10.24 39.414-13.817 84.855-21.799 132.16-21.799s92.746 7.982 135.050 22.672l-2.89-0.873c20.672 7.040 36.672 10.24 50.56 10.24h9.344c105.995-0.109 191.891-86.005 192-191.99v-0.010h-768zM96 512c17.673 0 32 14.327 32 32v0 32c0 176.448 143.552 320 320 320s320-143.552 320-320v-32c-0.109-88.321-71.678-159.891-159.989-160h-64.011c0 35.346-28.654 64-64 64v0h-64c-35.346 0-64-28.654-64-64s28.654-64 64-64v0h192c123.653 0.146 223.855 100.347 224 223.986v32.014c0 211.776-172.224 384-384 384s-384-172.224-384-384v-32c0-17.673 14.327-32 32-32v0zM448 768c0.227 0.001 0.496 0.002 0.764 0.002 105.579 0 191.168-85.589 191.168-191.168 0-49.462-18.785-94.537-49.61-128.479l0.141 0.158c0-0.192 0.256-0.32 0.384-0.512h17.152c34.063 0.093 63.936 17.948 80.855 44.788l0.233 0.396c8.96 26.112 14.912 53.632 14.912 82.816 0 141.385-114.615 256-256 256s-256-114.615-256-256v0c0-80.832 38.208-152 96.64-198.912 0 2.304-0.64 4.48-0.64 6.912 0.128 22.528 6.336 44.608 17.92 64-30.964 33.853-49.934 79.128-49.934 128.834 0 105.579 85.589 191.168 191.168 191.168 0.297 0 0.595-0.001 0.892-0.002h-0.046z" />
</font>
</defs>
</svg>
